<mxfile host="app.diagrams.net" modified="2023-02-06T01:22:01.225Z" agent="5.0 (Windows NT 10.0; Win64; x64) AppleWebKit/537.36 (KHTML, like Gecko) Chrome/109.0.0.0 Safari/537.36" version="20.8.5" etag="S79Zc3AWT9C90o0fXuO5" type="github">
  <diagram id="vtLDuZw767CZVL9ZvyXY" name="페이지-1">
    <mxGraphModel dx="1049" dy="1747" grid="1" gridSize="10" guides="1" tooltips="1" connect="1" arrows="1" fold="1" page="1" pageScale="1" pageWidth="827" pageHeight="1169" math="0" shadow="0">
      <root>
        <mxCell id="0" />
        <mxCell id="1" parent="0" />
        <mxCell id="icqQ4ItJmzRRmvVH0T_4-10" value="" style="rounded=1;whiteSpace=wrap;html=1;fillColor=none;dashed=1;" vertex="1" parent="1">
          <mxGeometry x="50" y="290" width="500" height="80" as="geometry" />
        </mxCell>
        <mxCell id="icqQ4ItJmzRRmvVH0T_4-11" value="" style="rounded=1;whiteSpace=wrap;html=1;fillColor=none;dashed=1;" vertex="1" parent="1">
          <mxGeometry x="50" y="210" width="500" height="80" as="geometry" />
        </mxCell>
        <mxCell id="icqQ4ItJmzRRmvVH0T_4-13" value="&lt;font style=&quot;font-size: 25px;&quot;&gt;VG&lt;/font&gt;" style="text;html=1;align=center;verticalAlign=middle;resizable=0;points=[];autosize=1;strokeColor=none;fillColor=none;" vertex="1" parent="1">
          <mxGeometry x="480" y="310" width="60" height="40" as="geometry" />
        </mxCell>
        <mxCell id="icqQ4ItJmzRRmvVH0T_4-9" value="" style="rounded=1;whiteSpace=wrap;html=1;fillColor=none;dashed=1;" vertex="1" parent="1">
          <mxGeometry x="50" y="370" width="500" height="80" as="geometry" />
        </mxCell>
        <mxCell id="icqQ4ItJmzRRmvVH0T_4-1" value="/dev/sda" style="rounded=0;whiteSpace=wrap;html=1;" vertex="1" parent="1">
          <mxGeometry x="70" y="380" width="120" height="60" as="geometry" />
        </mxCell>
        <mxCell id="icqQ4ItJmzRRmvVH0T_4-2" value="/dev/sdb" style="rounded=0;whiteSpace=wrap;html=1;fontSize=18;fillColor=#ffe6cc;strokeColor=#d79b00;" vertex="1" parent="1">
          <mxGeometry x="210" y="380" width="120" height="60" as="geometry" />
        </mxCell>
        <mxCell id="icqQ4ItJmzRRmvVH0T_4-3" value="/dev/sdc" style="rounded=0;whiteSpace=wrap;html=1;fontSize=18;fillColor=#ffe6cc;strokeColor=#d79b00;" vertex="1" parent="1">
          <mxGeometry x="353.5" y="380" width="120" height="60" as="geometry" />
        </mxCell>
        <mxCell id="icqQ4ItJmzRRmvVH0T_4-4" value="/dev/mapper/vg0" style="rounded=0;whiteSpace=wrap;html=1;fontSize=18;fillColor=#fff2cc;strokeColor=#d6b656;" vertex="1" parent="1">
          <mxGeometry x="70" y="300" width="403" height="60" as="geometry" />
        </mxCell>
        <mxCell id="icqQ4ItJmzRRmvVH0T_4-5" value="/dev/mapper/vg0-lv0" style="rounded=0;whiteSpace=wrap;html=1;fontSize=18;fillColor=#f8cecc;strokeColor=#b85450;" vertex="1" parent="1">
          <mxGeometry x="70" y="220" width="190" height="60" as="geometry" />
        </mxCell>
        <mxCell id="icqQ4ItJmzRRmvVH0T_4-8" value="/dev/mapper/vg0-lv2" style="rounded=0;whiteSpace=wrap;html=1;fontSize=18;fillColor=#f8cecc;strokeColor=#b85450;" vertex="1" parent="1">
          <mxGeometry x="283.5" y="220" width="190" height="60" as="geometry" />
        </mxCell>
        <mxCell id="icqQ4ItJmzRRmvVH0T_4-12" value="&lt;font style=&quot;font-size: 25px;&quot;&gt;PV&lt;/font&gt;" style="text;html=1;align=center;verticalAlign=middle;resizable=0;points=[];autosize=1;strokeColor=none;fillColor=none;" vertex="1" parent="1">
          <mxGeometry x="480" y="390" width="60" height="40" as="geometry" />
        </mxCell>
        <mxCell id="icqQ4ItJmzRRmvVH0T_4-14" value="&lt;font style=&quot;font-size: 25px;&quot;&gt;LV&lt;/font&gt;" style="text;html=1;align=center;verticalAlign=middle;resizable=0;points=[];autosize=1;strokeColor=none;fillColor=none;" vertex="1" parent="1">
          <mxGeometry x="485" y="230" width="50" height="40" as="geometry" />
        </mxCell>
        <mxCell id="icqQ4ItJmzRRmvVH0T_4-15" value="/dev/sda" style="rounded=0;whiteSpace=wrap;html=1;fontSize=18;fillColor=#ffe6cc;strokeColor=#d79b00;" vertex="1" parent="1">
          <mxGeometry x="70" y="380" width="120" height="60" as="geometry" />
        </mxCell>
      </root>
    </mxGraphModel>
  </diagram>
</mxfile>
